<?xml version="1.0" standalone="no"?>
<!DOCTYPE svg PUBLIC "-//W3C//DTD SVG 20010904//EN"
 "http://www.w3.org/TR/2001/REC-SVG-20010904/DTD/svg10.dtd">
<svg version="1.0" xmlns="http://www.w3.org/2000/svg"
 width="482.000000pt" height="482.000000pt" viewBox="0 0 482.000000 482.000000"
 preserveAspectRatio="xMidYMid meet">
<metadata>
Created by potrace 1.11, written by Peter Selinger 2001-2013
</metadata>
<g transform="translate(0.000000,482.000000) scale(0.100000,-0.100000)"
fill="#000000" stroke="none">
<path d="M1425 4399 c-121 -71 -231 -135 -245 -143 -127 -68 -180 -104 -168
-113 12 -9 311 -184 381 -222 16 -9 36 -21 45 -26 9 -6 62 -36 118 -68 l100
-57 315 181 c173 100 319 187 326 193 8 8 -69 57 -305 193 -174 100 -324 184
-332 186 -8 3 -114 -53 -235 -124z"/>
<path d="M3060 4475 c-52 -30 -102 -59 -110 -64 -8 -5 -107 -62 -220 -127
-113 -64 -211 -121 -218 -127 -9 -7 -2 -15 26 -31 21 -11 121 -68 221 -126
100 -58 196 -113 214 -123 17 -10 66 -39 108 -63 l76 -44 219 126 c121 69 267
154 326 188 59 33 108 63 108 66 0 3 -78 50 -173 104 -281 163 -478 276 -480
276 -1 0 -45 -25 -97 -55z"/>
<path d="M954 3693 l1 -378 280 -162 c154 -89 301 -174 328 -188 l47 -26 0
379 0 380 -127 73 c-71 41 -137 79 -148 86 -11 7 -26 15 -34 19 -7 4 -86 49
-175 101 -88 51 -164 93 -167 93 -3 0 -5 -170 -5 -377z"/>
<path d="M2170 3969 c-96 -56 -241 -139 -322 -186 -96 -55 -148 -91 -148 -101
-1 -32 -2 -677 -1 -710 l1 -33 53 29 c28 16 93 53 142 82 50 28 110 63 135 77
132 74 320 186 322 192 5 19 4 751 -1 751 -3 0 -85 -46 -181 -101z"/>
<path d="M2455 3693 l1 -377 119 -69 c66 -38 192 -111 280 -162 198 -115 255
-146 256 -143 1 2 2 171 3 377 l1 374 -35 22 c-38 24 -71 43 -365 213 -178
102 -250 142 -257 142 -2 0 -3 -170 -3 -377z"/>
<path d="M3523 3883 l-323 -187 0 -378 c0 -208 2 -378 4 -378 4 0 224 126 496
284 25 14 71 40 103 58 l57 33 0 377 c0 208 -3 378 -7 378 -5 -1 -153 -85
-330 -187z"/>
<path d="M871 3201 c-13 -9 -48 -29 -77 -46 -29 -16 -131 -75 -226 -130 -95
-55 -180 -103 -188 -108 -8 -4 -33 -18 -55 -32 -22 -14 -50 -31 -62 -37 -21
-10 -12 -17 114 -89 75 -44 137 -79 138 -79 1 0 87 -49 190 -110 104 -60 192
-110 196 -110 3 0 147 81 320 181 173 99 320 184 327 188 9 5 -95 71 -300 188
-388 224 -348 204 -377 184z"/>
<path d="M3615 3048 c-159 -92 -305 -176 -323 -184 -46 -23 -46 -28 -4 -51 41
-21 398 -227 530 -304 83 -49 106 -57 117 -40 3 6 18 16 33 24 47 25 110 61
359 204 l242 140 -302 173 c-166 96 -315 182 -332 191 l-30 16 -290 -169z"/>
<path d="M200 2381 l0 -380 198 -113 c108 -62 209 -120 223 -128 105 -61 228
-130 233 -130 3 0 6 170 6 378 l0 378 -32 17 c-18 9 -44 23 -58 31 -60 37
-232 136 -235 136 -2 0 -76 43 -165 95 -89 52 -164 95 -166 95 -2 0 -4 -171
-4 -379z"/>
<path d="M1564 2741 c-46 -28 -416 -241 -419 -241 -1 0 -47 -27 -101 -59 l-99
-59 0 -376 c0 -207 3 -376 7 -376 4 0 105 57 225 126 120 70 234 135 253 146
114 65 170 100 171 106 4 29 3 745 -2 747 -3 2 -19 -4 -35 -14z"/>
<path d="M3209 2753 c-1 -4 -2 -174 -2 -376 -1 -236 2 -372 8 -377 17 -14 636
-370 643 -370 9 0 9 746 0 755 -6 7 -379 223 -478 278 -30 17 -71 40 -90 52
-57 35 -80 46 -81 38z"/>
<path d="M4550 2729 c-30 -17 -72 -41 -92 -55 -21 -13 -39 -24 -41 -24 -2 0
-86 -48 -188 -107 -101 -58 -205 -118 -231 -132 l-48 -26 0 -377 c0 -208 3
-378 7 -378 7 0 -9 -9 371 210 l282 163 0 378 c0 209 -1 379 -2 379 -2 0 -28
-14 -58 -31z"/>
<path d="M1540 1838 c-58 -33 -199 -115 -315 -181 -115 -66 -214 -123 -218
-127 -8 -7 146 -101 313 -193 30 -17 71 -40 90 -52 19 -12 62 -37 95 -55 33
-18 80 -46 104 -61 l44 -27 51 31 c59 34 102 59 166 95 25 14 115 65 200 115
85 49 175 100 198 114 40 23 42 26 25 37 -45 32 -631 366 -639 366 -5 0 -56
-28 -114 -62z"/>
<path d="M3100 1872 c-25 -16 -70 -42 -100 -59 -54 -30 -492 -283 -498 -288
-1 -1 82 -51 185 -110 104 -60 251 -145 329 -190 l141 -82 169 97 c391 225
477 276 476 285 0 8 -78 56 -237 145 -27 15 -129 73 -225 129 -96 56 -179 101
-185 101 -5 0 -30 -13 -55 -28z"/>
<path d="M2097 1300 c-142 -82 -261 -150 -265 -152 -31 -14 -123 -72 -129 -81
-7 -11 -8 -745 -2 -752 3 -2 25 9 49 24 25 15 65 39 90 53 25 14 151 86 281
162 l236 136 0 380 c0 209 -1 380 -1 380 -1 0 -117 -67 -259 -150z"/>
<path d="M3755 1390 c-55 -31 -156 -90 -225 -130 -69 -39 -163 -94 -210 -120
-47 -27 -93 -55 -103 -62 -16 -12 -17 -40 -15 -390 l3 -376 56 32 c30 18 75
44 100 58 127 72 485 280 492 287 4 4 6 176 5 383 l-3 375 -100 -57z"/>
<path d="M954 1064 l1 -376 295 -170 c162 -93 310 -179 328 -190 l32 -20 -2
383 -3 383 -145 84 c-80 46 -163 94 -185 106 -22 13 -99 57 -172 99 -72 43
-135 77 -140 77 -5 0 -9 -163 -9 -376z"/>
<path d="M2458 1433 c-6 -11 -4 -741 2 -746 5 -4 360 -209 460 -265 25 -14 77
-44 117 -68 44 -26 73 -38 75 -31 6 17 4 745 -2 750 -8 7 -621 358 -635 363
-7 3 -15 2 -17 -3z"/>
</g>
</svg>
