<?xml version="1.0" encoding="utf-8"?>
<!-- Generator: Adobe Illustrator 17.1.0, SVG Export Plug-In . SVG Version: 6.00 Build 0)  -->
<!DOCTYPE svg PUBLIC "-//W3C//DTD SVG 1.1//EN" "http://www.w3.org/Graphics/SVG/1.1/DTD/svg11.dtd">
<svg version="1.1" id="Layer_1" xmlns="http://www.w3.org/2000/svg" xmlns:xlink="http://www.w3.org/1999/xlink" x="0px" y="0px"
	 viewBox="0 0 718 633.9" enable-background="new 0 0 718 633.9" xml:space="preserve">
<g>
	<path fill="#010202" d="M30,58.9h32.1c25.9,0,43.7,17.7,43.7,41.1c0,23.2-17.9,41.1-43.7,41.1H30V58.9z M62.1,124.9
		c14.8,0,24.8-10,24.8-24.8c0-14.6-10-24.8-24.8-24.8h-14v49.6H62.1z"/>
	<path fill="#010202" d="M108,129.2l10.7-12.8c7.4,6.1,15.2,10,24.6,10c7.4,0,11.9-2.9,11.9-8c0-4.6-2.8-6.9-16.6-10.5
		c-16.6-4.2-27.3-8.8-27.3-25.4c0-14.9,12-24.8,28.8-24.8c12,0,22.2,3.8,30.6,10.5l-9.4,13.6c-7.3-5.1-14.5-8.1-21.4-8.1
		s-10.6,3.2-10.6,7.4c0,5.4,3.5,7.2,17.7,10.8c16.7,4.3,26.1,10.3,26.1,24.9c0,16.3-12.5,25.5-30.2,25.5
		C130.5,142.4,117.9,138,108,129.2z"/>
	<path fill="#010202" d="M208.3,58.3H225l35.3,82.9h-18.9l-7.5-18.5H199l-7.5,18.5H173L208.3,58.3z M227.3,106.8l-10.9-26.7
		l-10.9,26.7H227.3z"/>
	<path fill="#010202" d="M30,164.4h33.6c19.6,0,31.5,11.6,31.5,28.7c0,19-14.8,28.9-33.3,28.9H48.1v24.7H30V164.4z M62.4,205.9
		c9,0,14.3-5.4,14.3-12.7c0-8.1-5.6-12.5-14.7-12.5h-14v25.2H62.4z"/>
	<path fill="#010202" d="M99.6,183.7h17.9v12.7c3.6-8.7,9.5-14.3,20.1-13.9v18.7h-0.9c-11.9,0-19.2,7.2-19.2,22.2v23.3H99.6V183.7z"
		/>
	<path fill="#010202" d="M136.8,215.3c0-18,12.8-32.8,31.1-32.8c21,0,30.7,16.3,30.7,34.2c0,1.4-0.1,3.1-0.2,4.7h-43.8
		c1.8,8.1,7.4,12.3,15.4,12.3c6,0,10.3-1.9,15.3-6.5l10.2,9c-5.9,7.3-14.3,11.8-25.7,11.8C150.8,248.1,136.8,234.8,136.8,215.3z
		 M181.3,210.2c-1.1-8-5.8-13.4-13.3-13.4c-7.4,0-12.2,5.3-13.6,13.4H181.3z"/>
	<path fill="#010202" d="M199.9,238.3l7.6-11.8c6.8,4.9,14,7.5,19.9,7.5c5.2,0,7.5-1.9,7.5-4.9c0-3.9-6.1-5.2-13-7.3
		c-8.8-2.6-18.8-6.7-18.8-19.2c0-12.8,10.3-20,23-20c8,0,16.7,2.7,23.5,7.3l-6.8,12.3c-6.2-3.6-12.5-5.9-17-5.9
		c-4.3,0-6.6,1.9-6.6,4.6c0,3.5,6,5.2,12.8,7.5c8.8,2.9,19,7.2,19,18.9c0,14-10.5,20.3-24.1,20.3
		C218.2,247.8,208.3,244.9,199.9,238.3z"/>
	<path fill="#010202" d="M253.8,215.3c0-18,12.8-32.8,31.1-32.8c21,0,30.7,16.3,30.7,34.2c0,1.4-0.1,3.1-0.2,4.7h-43.8
		c1.8,8.1,7.4,12.3,15.4,12.3c6,0,10.3-1.9,15.3-6.5l10.2,9c-5.9,7.3-14.3,11.8-25.7,11.8C267.7,248.1,253.8,234.8,253.8,215.3z
		 M298.2,210.2c-1.1-8-5.8-13.4-13.3-13.4c-7.4,0-12.2,5.3-13.6,13.4H298.2z"/>
	<path fill="#010202" d="M321.8,183.7h17.9v8.9c4.1-5.3,9.4-10.1,18.5-10.1c13.5,0,21.4,8.9,21.4,23.4v40.8h-17.9v-35.1
		c0-8.5-4-12.8-10.8-12.8c-6.8,0-11.2,4.4-11.2,12.8v35.1h-17.9V183.7z"/>
	<path fill="#010202" d="M390.9,228.8v-29.9h-7.5v-15.3h7.5v-16.1h17.9v16.1h14.8v15.3h-14.8v26.9c0,4.1,1.8,6.1,5.8,6.1
		c3.3,0,6.2-0.8,8.8-2.2v14.3c-3.8,2.2-8.1,3.6-14.1,3.6C398.3,247.7,390.9,243.4,390.9,228.8z"/>
	<path fill="#010202" d="M425.9,228.3c0-13.7,10.5-20.1,25.4-20.1c6.3,0,10.9,1.1,15.4,2.6v-1.1c0-7.4-4.6-11.5-13.5-11.5
		c-6.8,0-11.6,1.3-17.4,3.4l-4.5-13.6c6.9-3.1,13.8-5.1,24.4-5.1c9.8,0,16.8,2.6,21.3,7.1c4.7,4.7,6.8,11.6,6.8,20.1v36.6h-17.3
		v-6.8c-4.4,4.8-10.3,8-19,8C435.7,247.8,425.9,241,425.9,228.3z M466.9,224.4v-3.2c-3.1-1.4-7.1-2.3-11.4-2.3
		c-7.6,0-12.3,3.1-12.3,8.9c0,4.8,4,7.6,9.8,7.6C461.3,235.5,466.9,230.9,466.9,224.4z"/>
	<path fill="#010202" d="M494.6,228.8v-29.9H487v-15.3h7.5v-16.1h17.9v16.1h14.8v15.3h-14.8v26.9c0,4.1,1.8,6.1,5.8,6.1
		c3.3,0,6.2-0.8,8.8-2.2v14.3c-3.8,2.2-8.1,3.6-14.1,3.6C502,247.7,494.6,243.4,494.6,228.8z"/>
	<path fill="#010202" d="M533.7,160.9h18.8v15.9h-18.8V160.9z M534.2,183.7H552v63h-17.9V183.7z"/>
	<path fill="#010202" d="M558.7,215.3c0-18.1,14.6-32.8,34.2-32.8c19.5,0,34,14.5,34,32.8c0,18.1-14.6,32.8-34.2,32.8
		C573.2,248.1,558.7,233.6,558.7,215.3z M609.3,215.3c0-9.3-6.7-17.4-16.6-17.4c-10.2,0-16.3,7.9-16.3,17.4
		c0,9.3,6.7,17.4,16.6,17.4C603.2,232.7,609.3,224.8,609.3,215.3z"/>
	<path fill="#010202" d="M632.8,183.7h17.9v8.9c4.1-5.3,9.4-10.1,18.5-10.1c13.5,0,21.4,8.9,21.4,23.4v40.8h-17.9v-35.1
		c0-8.5-4-12.8-10.8-12.8c-6.8,0-11.2,4.4-11.2,12.8v35.1h-17.9V183.7z"/>
	<path fill="#010202" d="M30,267.8h32.1c25.9,0,43.7,17.7,43.7,41.1c0,23.2-17.9,41.1-43.7,41.1H30V267.8z M62.1,333.7
		c14.8,0,24.8-10,24.8-24.8c0-14.6-10-24.8-24.8-24.8h-14v49.6H62.1z"/>
	<path fill="#010202" d="M109.9,318.7c0-18,12.8-32.8,31.1-32.8c21,0,30.7,16.3,30.7,34.2c0,1.4-0.1,3.1-0.2,4.7h-43.8
		c1.8,8.1,7.4,12.3,15.4,12.3c6,0,10.3-1.9,15.3-6.5l10.2,9c-5.9,7.3-14.3,11.8-25.7,11.8C123.9,351.5,109.9,338.2,109.9,318.7z
		 M154.3,313.6c-1.1-8-5.8-13.4-13.3-13.4c-7.4,0-12.2,5.3-13.6,13.4H154.3z"/>
	<path fill="#010202" d="M173,341.7l7.6-11.8c6.8,4.9,14,7.5,19.9,7.5c5.2,0,7.5-1.9,7.5-4.9c0-3.9-6.1-5.2-13-7.3
		c-8.8-2.6-18.8-6.7-18.8-19.2c0-12.8,10.3-20,23-20c8,0,16.7,2.7,23.5,7.3l-6.8,12.3c-6.2-3.6-12.5-5.9-17-5.9
		c-4.3,0-6.6,1.9-6.6,4.6c0,3.5,6,5.2,12.8,7.5c8.8,2.9,19,7.2,19,18.9c0,14-10.5,20.3-24.1,20.3C191.2,351.2,181.4,348.3,173,341.7
		z"/>
	<path fill="#010202" d="M230.3,264.3h18.8v15.9h-18.8V264.3z M230.7,287.1h17.9v63h-17.9V287.1z"/>
	<path fill="#010202" d="M258.7,362.5l6.1-13.4c6.5,3.6,12.9,5.8,21.3,5.8c12.2,0,18-5.9,18-17.2v-3.1c-5.3,6.3-11,10.2-20.6,10.2
		c-14.7,0-28-10.7-28-29.6c0-18.8,13.5-29.4,28-29.4c9.8,0,15.5,4.1,20.3,9.4v-8.2h17.9v48.8c0,11.3-2.7,19.5-8,24.8
		c-5.9,5.9-14.9,8.5-27.2,8.5C276.3,369.1,266.7,366.8,258.7,362.5z M304.1,315.3c0-8.6-6.7-14.6-15.4-14.6c-8.7,0-15.3,6-15.3,14.8
		c0,8.7,6.6,14.6,15.3,14.6C297.4,330.1,304.1,324.1,304.1,315.3z"/>
	<path fill="#010202" d="M330.6,287.1h17.9v8.9c4.1-5.3,9.4-10.1,18.5-10.1c13.5,0,21.4,8.9,21.4,23.4v40.8h-17.9v-35.1
		c0-8.5-4-12.8-10.8-12.8c-6.8,0-11.2,4.4-11.2,12.8v35.1h-17.9V287.1z"/>
</g>
</svg>
